<svg width="128" height="94" viewBox="0 0 128 94" fill="none" xmlns="http://www.w3.org/2000/svg">
<path d="M42.4598 70.3736L42.4698 70.3735H42.4793H82.6489H82.6495L82.6897 70.3736L82.7298 70.3735H82.7304H110.03H110.038L110.046 70.3736C119.565 70.3736 127.282 62.6569 127.282 53.1379C127.282 46.3115 123.313 40.4129 117.559 37.6218C117.604 36.8991 117.626 36.1706 117.626 35.4368C117.626 16.1417 101.985 0.5 82.6897 0.5C68.238 0.5 55.8369 9.27444 50.5211 21.7846C47.9916 20.9219 45.2798 20.454 42.4598 20.454C28.6749 20.454 17.5 31.6289 17.5 45.4138C17.5 59.1987 28.6749 70.3736 42.4598 70.3736Z" fill="white" stroke="black"/>
<path d="M0.5 68.4138C0.5 82.1987 11.6749 93.3736 25.4598 93.3736H93.046C102.565 93.3736 110.282 85.6569 110.282 76.1379C110.282 69.3115 106.313 63.413 100.559 60.6218C100.604 59.8991 100.626 59.1706 100.626 58.4368C100.626 39.1417 84.9847 23.5 65.6897 23.5C51.238 23.5 38.8369 32.2744 33.5211 44.7846C30.9916 43.9219 28.2798 43.454 25.4598 43.454C11.6749 43.454 0.5 54.6289 0.5 68.4138Z" fill="white" stroke="black"/>
</svg>
