<svg width="128" height="128" viewBox="0 0 128 128" fill="none" xmlns="http://www.w3.org/2000/svg">
<path d="M33.1834 81.9112C19.275 81.9112 8 70.6362 8 56.7278C8 42.8194 19.275 31.5444 33.1834 31.5444C36.1992 31.5444 39.0912 32.0745 41.7712 33.0466C47.059 20.1128 59.767 11 74.6035 11C94.1851 11 110.059 26.874 110.059 46.4556C110.059 47.3182 110.028 48.1737 109.968 49.0208C115.889 51.7474 120 57.7339 120 64.6805C120 74.1968 112.286 81.9112 102.769 81.9112H33.1834Z" fill="white"/>
<path d="M92.9543 95.7094L89.5148 88.5385L86.0752 95.7096C85.7339 96.3071 85.5384 97.0018 85.5384 97.7429C85.5384 99.9797 87.3187 101.793 89.5148 101.793C91.7108 101.793 93.4911 99.9797 93.4911 97.7429C93.4911 97.0017 93.2956 96.307 92.9543 95.7094Z" fill="#64D2FF"/>
<path d="M69.0964 95.7095L65.6568 88.5385L62.2173 95.7094C61.876 96.307 61.6805 97.0017 61.6805 97.7429C61.6805 99.9797 63.4607 101.793 65.6568 101.793C67.8529 101.793 69.6331 99.9797 69.6331 97.7429C69.6331 97.0018 69.4377 96.3071 69.0964 95.7095Z" fill="#64D2FF"/>
<path d="M45.9012 95.7097L42.4616 88.5385L39.0221 95.7092C38.6807 96.3069 38.4852 97.0016 38.4852 97.7429C38.4852 99.9797 40.2655 101.793 42.4615 101.793C44.6576 101.793 46.4379 99.9797 46.4379 97.7429C46.4379 97.0018 46.2424 96.3073 45.9012 95.7097Z" fill="#64D2FF"/>
</svg>
