<svg width="111" height="92" viewBox="0 0 111 92" fill="none" xmlns="http://www.w3.org/2000/svg">
<path d="M0.5 45.4138C0.5 59.1987 11.6749 70.3736 25.4598 70.3736H93.046C102.565 70.3736 110.282 62.6569 110.282 53.1379C110.282 46.3115 106.313 40.413 100.559 37.6218C100.604 36.8991 100.626 36.1706 100.626 35.4368C100.626 16.1417 84.9847 0.5 65.6897 0.5C51.238 0.5 38.8369 9.27444 33.5211 21.7846C30.9916 20.9219 28.2798 20.454 25.4598 20.454C11.6749 20.454 0.5 31.6289 0.5 45.4138Z" fill="white" stroke="black"/>
<path d="M79.5567 37.5C78.4219 37.5 77.5019 38.42 77.5019 39.5548V43.5639L75.9714 42.2035C75.1296 41.4552 73.8345 41.523 73.0755 42.3552C72.3132 43.1911 72.3807 44.4807 73.2263 45.2323L77.5019 49.0329V55.271L72.3796 52.3514L71.0971 46.395C70.8595 45.2912 69.7654 44.5959 68.6613 44.8276C67.5553 45.0596 66.8397 46.1379 67.0778 47.2437L67.5897 49.6212L63.6411 47.3706C62.6642 46.8138 61.4143 47.1487 60.8466 48.1194C60.2767 49.0938 60.6104 50.3391 61.5911 50.8981L65.1541 52.9289L63.1649 53.567L63.3176 54.0431L63.1649 53.567C62.0883 53.9123 61.4896 55.0589 61.8434 56.1339C62.1962 57.2059 63.3574 57.7834 64.4313 57.4389L69.9569 55.6664L75.5534 58.8563L70.2894 61.8567L64.3655 59.9565C63.2917 59.6121 62.1305 60.1895 61.7777 61.2615C61.4239 62.3365 62.0226 63.4831 63.0992 63.8284L65.4865 64.5942L61.5226 66.8536C60.5419 67.4125 60.2083 68.6579 60.7781 69.6323C61.3458 70.6029 62.5957 70.9378 63.5726 70.381L67.1204 68.3589L66.6955 70.3322C66.4574 71.4381 67.173 72.5163 68.279 72.7484C69.3831 72.9801 70.4772 72.2848 70.7148 71.181L71.9103 65.6287L77.5019 62.4417V68.2618L72.9153 72.3388C72.0697 73.0904 72.0022 74.38 72.7645 75.2159C73.5235 76.0481 74.8186 76.1159 75.6604 75.3676L77.5019 73.7308V78.1966C77.5019 79.3315 78.4219 80.2515 79.5567 80.2515C80.6916 80.2515 81.6115 79.3315 81.6115 78.1966V74.1518L83.1822 75.5479C84.024 76.2962 85.3191 76.2284 86.0781 75.3962C86.8404 74.5603 86.7729 73.2707 85.9273 72.5191L81.6115 68.6828V62.3093L86.771 65.2501L88.0647 71.2586C88.3024 72.3624 89.3964 73.0577 90.5005 72.826C91.6066 72.5939 92.3221 71.5157 92.084 70.4099L91.5609 67.9802L95.5408 70.2487C96.5177 70.8055 97.7677 70.4706 98.3353 69.4999C98.9052 68.5255 98.5715 67.2802 97.5908 66.7212L94.059 64.7082L95.9969 64.0865C97.0735 63.7412 97.6722 62.5946 97.3184 61.5196C96.9656 60.4476 95.8044 59.8702 94.7306 60.2146L89.2562 61.9706L83.7922 58.8563L88.7869 56.0094L94.6592 57.8931C95.733 58.2375 96.8942 57.6601 97.247 56.5881C97.6008 55.5131 97.0021 54.3665 95.9256 54.0212L93.5898 53.2719L97.5223 51.0304C98.503 50.4714 98.8367 49.2261 98.2668 48.2517C97.6992 47.281 96.4492 46.9461 95.4723 47.503L91.893 49.5431L92.3292 47.5171C92.5673 46.4113 91.8518 45.3331 90.7457 45.101C89.6416 44.8693 88.5475 45.5646 88.3099 46.6684L87.1031 52.2732L81.6115 55.4033V49.5255L86.2383 45.4127C87.0839 44.6611 87.1514 43.3715 86.3891 42.5357C85.6301 41.7035 84.335 41.6356 83.4932 42.3839L81.6115 44.0565V39.5548C81.6115 38.42 80.6916 37.5 79.5567 37.5Z" fill="#64D2FF" stroke="black"/>
<path d="M29.5567 48.5C28.4219 48.5 27.5019 49.42 27.5019 50.5548V54.5639L25.9714 53.2035C25.1296 52.4552 23.8345 52.523 23.0755 53.3552C22.3132 54.1911 22.3807 55.4807 23.2263 56.2323L27.5019 60.0329V66.271L22.3796 63.3514L21.0971 57.395C20.8595 56.2912 19.7654 55.5959 18.6613 55.8276C17.5553 56.0596 16.8397 57.1379 17.0778 58.2437L17.5897 60.6212L13.6411 58.3706C12.6642 57.8138 11.4143 58.1487 10.8466 59.1194C10.2767 60.0938 10.6104 61.3391 11.5911 61.8981L15.1541 63.9289L13.1649 64.567L13.3176 65.0431L13.1649 64.567C12.0883 64.9123 11.4896 66.0589 11.8434 67.1339C12.1962 68.2059 13.3574 68.7834 14.4313 68.4389L19.9569 66.6664L25.5534 69.8563L20.2894 72.8567L14.3655 70.9565C13.2917 70.6121 12.1305 71.1895 11.7777 72.2615C11.4239 73.3365 12.0226 74.4831 13.0992 74.8284L15.4865 75.5942L11.5226 77.8536C10.5419 78.4125 10.2083 79.6579 10.7781 80.6323C11.3458 81.6029 12.5957 81.9378 13.5726 81.381L17.1204 79.3589L16.6955 81.3322C16.4574 82.4381 17.173 83.5163 18.279 83.7484C19.3831 83.9801 20.4772 83.2848 20.7148 82.181L21.9103 76.6287L27.5019 73.4417V79.2618L22.9153 83.3388C22.0697 84.0904 22.0022 85.38 22.7645 86.2159C23.5235 87.0481 24.8186 87.1159 25.6604 86.3676L27.5019 84.7308V89.1966C27.5019 90.3315 28.4219 91.2515 29.5567 91.2515C30.6916 91.2515 31.6115 90.3315 31.6115 89.1966V85.1518L33.1822 86.5479C34.024 87.2962 35.3191 87.2284 36.0781 86.3962C36.8404 85.5603 36.7729 84.2707 35.9273 83.5191L31.6115 79.6828V73.3093L36.771 76.2501L38.0647 82.2586C38.3024 83.3624 39.3964 84.0577 40.5005 83.826C41.6066 83.5939 42.3221 82.5157 42.084 81.4099L41.5609 78.9802L45.5408 81.2487C46.5177 81.8055 47.7677 81.4706 48.3353 80.4999C48.9052 79.5255 48.5715 78.2802 47.5908 77.7212L44.059 75.7082L45.9969 75.0865C47.0735 74.7412 47.6722 73.5946 47.3184 72.5196C46.9656 71.4476 45.8044 70.8702 44.7306 71.2146L39.2562 72.9706L33.7922 69.8563L38.7869 67.0094L44.6592 68.8931C45.733 69.2375 46.8942 68.6601 47.247 67.5881C47.6008 66.5131 47.0021 65.3665 45.9256 65.0212L43.5898 64.2719L47.5223 62.0304C48.503 61.4714 48.8367 60.2261 48.2668 59.2517C47.6992 58.281 46.4492 57.9461 45.4723 58.503L41.893 60.5431L42.3292 58.5171C42.5673 57.4113 41.8518 56.3331 40.7457 56.101C39.6416 55.8693 38.5475 56.5646 38.3099 57.6684L37.1031 63.2732L31.6115 66.4033V60.5255L36.2383 56.4127C37.0839 55.6611 37.1514 54.3715 36.3891 53.5357C35.6301 52.7035 34.335 52.6356 33.4932 53.3839L31.6115 55.0565V50.5548C31.6115 49.42 30.6916 48.5 29.5567 48.5Z" fill="#64D2FF" stroke="black"/>
</svg>
